<?xml version="1.0" encoding="UTF-8"?>
<svg width="320px" height="94px" viewBox="0 0 320 94" version="1.1" xmlns="http://www.w3.org/2000/svg" xmlns:xlink="http://www.w3.org/1999/xlink">
    <!-- Generator: Sketch 48.1 (47250) - http://www.bohemiancoding.com/sketch -->
    <title>tnc-logo</title>
    <desc>Created with Sketch.</desc>
    <defs></defs>
    <g id="Page-1" stroke="none" stroke-width="1" fill="none" fill-rule="evenodd">
        <g id="tnc-logo" fill-rule="nonzero">
            <path d="M281.83,13.815 C281.566,15.342 281.463,19.093 283.657,18.615 C286.582,17.987 286.202,17.682 287.803,16.285 C288.87,15.348 291.493,17.905 287.845,21.975 C285.855,24.205 285.415,24.888 286.482,26.175 C287.592,27.513 290.48,28.025 290.48,32.145 C290.48,35.762 295.123,33.14 296.247,31.729 C297.345,30.351 298.154,24.056 301.285,28.639 C303.505,31.899 299.713,38.873 304.278,39.556 C308.025,40.12 308.682,44.392 308.788,45.48 L308.808,45.733 C318.392,36.533 312.006,24.627 311.768,23.18 C311.356,20.6 312.748,21.543 314.458,23.125 C307.393,9.875 293.451,0.855 277.398,0.855 C274.628,0.855 271.918,1.132 269.296,1.645 C277.568,1.818 283.346,5.125 281.831,13.815 M303.843,64.424 C301.266,65.454 300.148,63.802 298.235,65.671 C296.131,67.724 302.855,71.754 290.48,68.931 C284.955,67.671 285.706,73.681 279.5,70.527 C277.784,66.435 277.733,64.027 279.2,61.465 C280.912,58.465 281.525,59.475 280.484,56.175 C280.074,54.885 280.471,54.313 281.151,52.518 C281.828,50.724 280.959,48.238 278.433,48.378 C275.07,48.565 275.459,50.092 273.385,51.484 C271.993,52.414 269.648,47.68 274.567,43.424 C277.26,41.101 277.892,40.351 277.003,38.564 C276.081,36.701 274.377,37.371 273.688,35.234 C273.158,33.592 273.981,30.501 271.618,29.764 C268.936,28.924 266.8,32.758 265.254,34.259 C263.45,36.005 261.481,39.129 260.511,36.639 C258.791,32.207 266.701,25.604 261.826,23.851 C257.236,22.201 255.741,17.381 255.741,17.381 C243.141,26.728 249.107,34.948 248.057,36.404 C247.007,37.86 244.987,34.634 243.289,36.179 C241.979,37.371 240.809,45.012 248.882,49.861 C251.942,51.697 252.945,52.167 252.212,53.279 C251.624,54.159 249.176,53.417 249.212,55.434 C249.292,59.484 255.79,58.269 256.972,63.339 C258.08,68.079 278.228,70.913 278.228,70.913 C278.205,70.891 278.318,70.923 278.482,70.971 L279.439,71.503 C279.739,72.753 280.937,75.617 283.739,77.057 C288.379,79.444 283.456,78.297 284.089,79.979 C284.409,80.835 287.699,83.055 293.549,81.709 C301.635,78.332 308.436,72.495 313.029,65.134 C308.027,61.226 307.653,62.034 303.845,64.424" id="Shape" fill="#FFFFFE"></path>
            <path d="M278.48,70.97 C278.316,70.922 278.203,70.89 278.226,70.912 C278.226,70.912 258.078,68.077 256.97,63.338 C255.788,58.268 249.29,59.482 249.21,55.433 C249.174,53.416 251.622,54.157 252.21,53.278 C252.943,52.166 251.94,51.696 248.88,49.86 C240.808,45.01 241.977,37.37 243.288,36.178 C244.986,34.634 247.006,37.858 248.056,36.403 C249.106,34.947 243.14,26.727 255.74,17.381 C255.74,17.381 257.234,22.201 261.825,23.851 C266.699,25.604 258.79,32.207 260.51,36.639 C261.48,39.129 263.45,36.005 265.253,34.259 C266.799,32.759 268.935,28.925 271.618,29.763 C273.98,30.501 273.158,33.593 273.688,35.235 C274.376,37.371 276.08,36.701 277.002,38.563 C277.892,40.351 277.259,41.101 274.566,43.423 C269.646,47.68 271.992,52.415 273.384,51.483 C275.458,50.093 275.069,48.565 278.432,48.379 C280.958,48.237 281.827,50.724 281.152,52.519 C280.472,54.313 280.075,54.886 280.484,56.175 C281.524,59.475 280.912,58.465 279.199,61.465 C277.732,64.025 277.783,66.435 279.499,70.527 C285.705,73.68 284.954,67.672 290.479,68.932 C302.853,71.755 296.129,67.725 298.234,65.672 C300.147,63.804 301.264,65.457 303.842,64.426 C307.66,62.032 308.024,61.221 313.052,65.156 C317.092,58.701 319.442,51.07 319.442,42.893 C319.442,35.781 317.666,29.083 314.544,23.205 C312.792,21.575 311.348,20.559 311.767,23.183 C312.005,24.63 318.391,36.535 308.807,45.736 L308.787,45.484 C308.681,44.397 308.024,40.124 304.277,39.561 C299.712,38.878 303.504,31.904 301.284,28.645 C298.154,24.062 297.344,30.357 296.246,31.735 C295.122,33.145 290.479,35.767 290.479,32.149 C290.479,28.031 287.589,27.519 286.481,26.181 C285.415,24.893 285.853,24.211 287.844,21.981 C291.491,17.911 288.869,15.353 287.802,16.291 C286.202,17.687 286.582,17.991 283.656,18.621 C281.462,19.098 281.566,15.347 281.83,13.821 C283.345,5.121 277.56,1.816 269.27,1.649 C249.94,5.439 235.36,22.461 235.36,42.896 C235.36,66.116 254.18,84.938 277.398,84.938 C283.128,84.938 288.592,83.785 293.57,81.708 C287.707,83.07 284.408,80.84 284.086,79.984 C283.454,78.302 288.376,79.449 283.738,77.062 C280.935,75.622 279.738,72.758 279.438,71.508 L278.48,70.976" id="Shape" fill="#4AA241"></path>
            <path d="M280.848,72.26 C280.848,72.26 253.214,61.53 252.254,34.338 C252.254,34.338 254.924,55.011 280.848,72.258 M280.642,0.92 C281.432,1.006 287.382,1.798 293.666,5.81 C296.002,7.998 299.311,13.367 294.204,24.372 C294.204,24.372 300.747,15.542 299.094,10.182 C304.581,15.685 309.194,24.412 309.368,38.24 C309.368,38.24 315.466,3.596 280.642,0.92 M308.263,69.636 C306.156,70.916 302.735,73.931 297.146,72.169 C297.146,72.169 299.333,73.849 302.851,73.759 C298.364,76.075 293.501,76.629 285.801,74.703 C285.801,74.703 301.389,83.897 312.278,66.301 C312.278,66.301 309.575,68.841 308.264,69.635" id="Shape" fill="#4AA241"></path>
            <path d="M13.96,32.508 C13.96,35.538 14.536,36.378 16.688,36.378 L16.688,37.128 L7.758,37.128 L7.758,36.378 C9.562,36.378 10.618,35.848 10.618,32.376 L10.618,13.16 L6.967,13.16 C3.584,13.16 2.044,14.123 1.825,16.762 L1.078,16.762 L1.078,11.005 L1.825,11.005 C2.175,11.311 2.575,11.53 3.191,11.705 C3.761,11.845 4.551,11.925 5.611,11.925 L18.799,11.925 C20.996,11.925 22.009,11.662 22.799,11.005 L23.589,11.005 L23.589,16.762 L23.109,16.762 C22.619,14.655 21.789,13.16 17.789,13.16 L13.96,13.16 L13.96,32.508 Z M41.143,33.384 C41.143,35.761 41.581,36.377 43.646,36.377 L43.646,37.127 L35.556,37.127 L35.556,36.377 C37.673,36.377 38.153,35.891 38.153,33.87 L38.153,26.178 C38.153,24.108 36.923,22.788 35.035,22.788 C33.273,22.788 31.997,23.624 30.502,25.736 L30.502,34.27 C30.502,35.89 31.159,36.377 33.092,36.377 L33.092,37.127 L24.742,37.127 L24.742,36.377 C27.072,36.332 27.516,35.891 27.516,33.384 L27.516,13.114 C27.516,11.092 26.939,10.784 24.742,10.784 L24.742,10.038 L29.755,9.508 L30.502,9.508 L30.502,24.24 C32.48,21.952 33.932,21.12 35.95,21.12 C38.55,21.12 41.143,22.834 41.143,26.525 L41.143,33.385 L41.143,33.384 Z M56.906,26.88 C57.038,23.448 54.706,22.042 52.726,22.042 C50.134,22.042 48.594,23.976 48.416,26.88 L56.906,26.88 Z M48.416,27.627 C48.333,34.617 52.506,36.377 54.618,36.377 C56.778,36.377 57.872,35.63 60.118,33.123 L60.118,34.27 C58.226,36.686 56.418,37.604 53.698,37.604 C48.816,37.604 45.295,34.224 45.295,29.514 C45.295,24.816 48.725,21.121 53.12,21.121 C56.728,21.121 60.07,24.023 59.853,27.628 L48.417,27.628 L48.416,27.627 Z M100.29,46.576 L99.106,46.576 L70.946,11.866 L70.806,11.866 L70.806,39.886 C70.806,43.928 72.411,45.391 76.036,45.391 L76.036,46.577 L63.908,46.577 L63.908,45.39 C67.248,45.39 68.852,44.347 68.852,38.56 L68.852,15.213 C68.852,10.753 67.667,8.243 62.928,7.823 L62.928,6.64 L73.172,6.64 L98.13,37.724 L98.268,37.724 L98.268,14.374 C98.268,9.146 96.873,7.822 93.391,7.822 L93.391,6.64 L105.451,6.64 L105.451,7.822 C101.549,7.822 100.291,9.426 100.291,14.094 L100.291,46.576 L100.29,46.576 Z M137.14,21.832 L145.712,21.832 L145.712,23.642 L137.139,23.642 L137.139,39.537 C137.139,42.952 138.881,44.695 141.599,44.695 C143.414,44.695 144.739,43.995 146.199,42.325 L146.967,43.229 C144.805,45.947 142.299,47.339 139.509,47.339 C135.329,47.339 132.399,44.414 132.399,40.161 L132.399,23.641 L127.731,23.641 L127.731,22.461 C131.075,20.788 133.861,17.788 135.956,13.536 L137.138,13.536 L137.138,21.831 L137.14,21.832 Z M173.81,41.905 C173.81,44.625 174.717,45.391 178.06,45.391 L178.06,46.577 L169.072,47.064 L169.072,42.534 L168.934,42.534 C166.492,45.74 163.636,47.341 160.289,47.341 C155.407,47.341 152.205,43.649 152.205,39.049 L152.205,26.432 C152.205,24.062 151.368,23.156 147.811,23.156 L147.811,21.97 L155.759,21.204 L156.944,21.204 L156.944,38.838 C156.944,42.324 159.174,44.415 162.52,44.415 C164.888,44.415 167.05,43.091 169.072,40.372 L169.072,27.06 C169.072,23.643 168.512,23.227 164.262,23.156 L164.262,21.97 L172.626,21.204 L173.811,21.204 L173.811,41.904 L173.81,41.905 Z M189.126,41.905 C189.126,44.625 189.961,45.391 193.236,45.391 L193.236,46.577 L180.203,46.577 L180.203,45.39 C183.969,45.39 184.388,44.415 184.388,40.652 L184.388,27.2 C184.388,23.575 183.478,23.156 179.298,23.156 L179.298,21.97 L187.941,21.204 L189.127,21.204 L189.127,26.571 C193.727,22.601 195.887,21.205 197.561,21.205 C198.956,21.205 200.838,22.043 202.094,23.157 L200.21,27.547 C198.19,26.433 196.024,25.387 194.355,25.387 C192.751,25.387 191.355,26.224 189.125,28.385 L189.125,41.905 L189.126,41.905 Z M220.878,30.337 C221.088,24.899 217.392,22.667 214.254,22.667 C210.144,22.667 207.702,25.737 207.424,30.337 L220.878,30.337 Z M207.425,31.522 C207.285,42.604 213.905,45.392 217.255,45.392 C220.668,45.392 222.408,44.205 225.965,40.232 L225.965,42.047 C222.969,45.88 220.108,47.34 215.788,47.34 C208.05,47.34 202.473,41.976 202.473,34.518 C202.473,27.06 207.911,21.204 214.883,21.204 C220.598,21.204 225.893,25.804 225.546,31.522 L207.426,31.522 L207.425,31.522 Z M25.918,56.37 C24.458,50.735 21.378,48.28 16.215,48.28 C9.011,48.28 5.149,54.073 5.149,61.746 C5.149,70.718 9.793,76.614 16.523,76.614 C21.22,76.614 24.718,74.424 26.963,70.039 L27.743,70.769 C25.763,75.517 21.013,78.491 15.273,78.491 C8.073,78.491 0.557,73.585 0.557,63.621 C0.557,54.127 7.081,47.133 16.004,47.133 C19.761,47.133 22.579,48.386 24.351,48.386 C25.137,48.386 25.656,48.07 25.968,47.446 L26.805,47.446 L26.805,56.369 L25.915,56.369 L25.918,56.37 Z M39.732,59.814 C35.822,59.814 33.469,63.257 33.469,68.576 C33.469,73.328 35.452,77.293 39.731,77.293 C44.111,77.293 45.993,73.067 45.993,68.576 C45.993,63.934 44.013,59.814 39.731,59.814 L39.732,59.814 Z M39.732,78.337 C33.939,78.337 29.61,74.162 29.61,68.577 C29.61,62.945 33.94,58.77 39.732,58.77 C45.524,58.77 49.854,62.945 49.854,68.576 C49.854,74.162 45.524,78.336 39.732,78.336 L39.732,78.337 Z M71.293,73.747 C71.293,76.143 71.815,76.875 74.423,76.875 L74.423,77.765 L64.563,77.765 L64.563,76.875 C67.066,76.875 67.746,76.301 67.746,74.581 L67.746,64.927 C67.746,61.957 65.604,60.704 63.623,60.704 C61.796,60.704 60.179,61.85 58.353,64.302 L58.353,73.33 C58.353,76.145 58.716,76.877 61.483,76.877 L61.483,77.767 L51.726,77.767 L51.726,76.877 C54.176,76.877 54.802,76.667 54.802,73.33 L54.802,62.945 C54.802,60.703 54.229,60.232 51.726,60.232 L51.726,59.346 L57.463,58.77 L58.353,58.77 L58.353,62.47 C60.543,59.97 62.683,58.77 65.03,58.77 C68.107,58.77 71.293,60.964 71.293,65.396 L71.293,73.746 L71.293,73.747 Z M86.565,64.456 C86.2,61.379 84.165,59.814 81.972,59.814 C80.146,59.814 78.892,60.806 78.892,62.317 C78.892,67.014 88.597,65.76 88.597,72.647 C88.597,75.727 85.939,78.337 82.755,78.337 C80.719,78.337 78.947,76.977 78.058,76.977 C77.382,76.977 76.908,77.554 76.856,78.231 L75.971,78.231 L75.971,71.918 L76.857,71.918 C77.644,75.78 80.514,77.294 82.807,77.294 C84.637,77.294 86.044,75.934 86.044,74.108 C86.044,68.948 76.232,70.352 76.232,64.093 C76.232,61.223 78.792,58.771 81.868,58.771 C83.803,58.771 84.376,59.661 85.628,59.661 C86.096,59.661 86.46,59.399 86.721,58.771 L87.609,58.771 L87.609,64.457 L86.566,64.457 L86.565,64.456 Z M104.344,65.603 C104.499,61.533 101.734,59.868 99.386,59.868 C96.306,59.868 94.483,62.162 94.27,65.603 L104.344,65.603 Z M94.27,66.493 C94.167,74.787 99.125,76.875 101.628,76.875 C104.186,76.875 105.491,75.989 108.152,73.015 L108.152,74.368 C105.907,77.238 103.767,78.338 100.532,78.338 C94.742,78.338 90.566,74.32 90.566,68.734 C90.566,63.151 94.634,58.77 99.853,58.77 C104.131,58.77 108.1,62.217 107.839,66.492 L94.27,66.492 L94.27,66.493 Z M117.034,74.268 C117.034,76.301 117.659,76.875 120.114,76.875 L120.114,77.765 L110.354,77.765 L110.354,76.875 C113.171,76.875 113.484,76.143 113.484,73.328 L113.484,63.258 C113.484,60.545 112.804,60.232 109.676,60.232 L109.676,59.346 L116.144,58.77 L117.034,58.77 L117.034,62.787 C120.477,59.814 122.094,58.77 123.348,58.77 C124.392,58.77 125.798,59.398 126.74,60.232 L125.33,63.515 C123.815,62.685 122.198,61.901 120.945,61.901 C119.745,61.901 118.702,62.527 117.035,64.144 L117.035,74.269 L117.034,74.268 Z M139.053,73.273 L142.653,63.933 C143.543,61.533 143.543,60.443 140.828,60.233 L140.828,59.346 L147.612,59.346 L147.612,60.232 C145.472,60.442 144.952,60.909 144.062,62.89 L138.112,78.18 L137.229,78.18 L131.329,63.673 C130.077,60.651 129.606,60.335 127.416,60.233 L127.416,59.346 L136.339,59.346 L136.339,60.232 C134.564,60.39 134.097,61.379 134.931,63.412 L139.051,73.272 L139.053,73.273 Z M184.442,73.747 C184.442,76.143 184.967,76.875 187.574,76.875 L187.574,77.765 L177.714,77.765 L177.714,76.875 C180.219,76.875 180.896,76.301 180.896,74.581 L180.896,64.927 C180.896,61.957 178.753,60.704 176.772,60.704 C174.945,60.704 173.332,61.85 171.502,64.302 L171.502,73.33 C171.502,76.145 171.869,76.877 174.636,76.877 L174.636,77.767 L164.876,77.767 L164.876,76.877 C167.33,76.877 167.956,76.667 167.956,73.33 L167.956,62.945 C167.956,60.703 167.378,60.232 164.876,60.232 L164.876,59.346 L170.616,58.77 L171.502,58.77 L171.502,62.47 C173.695,59.97 175.834,58.77 178.18,58.77 C181.263,58.77 184.442,60.964 184.442,65.396 L184.442,73.746 L184.442,73.747 Z M204.98,65.29 L204.09,65.29 C203.304,61.956 200.96,59.814 197.88,59.814 C194.23,59.814 191.672,62.944 191.672,67.481 C191.672,72.543 194.854,76.773 198.612,76.773 C200.856,76.773 203.569,75.573 205.498,72.91 L205.498,74.268 C203.518,76.978 200.698,78.338 197.361,78.338 C191.879,78.338 188.071,74.526 188.071,68.995 C188.071,63.309 192.351,58.77 197.619,58.77 C200.387,58.77 201.899,59.814 202.839,59.814 C203.305,59.814 203.779,59.45 204.091,58.77 L204.981,58.77 L204.981,65.29 L204.98,65.29 Z M218.233,73.482 L221.471,63.724 C222.201,61.534 222.045,60.334 220.011,60.232 L220.011,59.346 L226.533,59.346 L226.533,60.232 C224.548,60.232 223.35,61.485 222.306,64.562 L214.948,86.32 C213.485,90.598 211.085,93.05 208.84,93.05 C208.06,93.05 207.486,92.844 206.545,92.27 L207.747,89.087 C208.475,89.4 208.89,89.503 209.519,89.503 C211.759,89.503 213.069,88.198 214.215,84.963 L216.618,78.283 L209.99,62.996 C209.05,60.856 208.37,60.284 206.23,60.232 L206.23,59.346 L215.1,59.346 L215.1,60.232 C213.692,60.442 213.118,61.485 213.798,63.048 L218.231,73.482 L218.233,73.482 Z M119.608,41.557 C118.632,43.647 115.983,44.695 114.521,44.695 C112.499,44.695 110.756,42.672 110.756,40.162 C110.756,35.142 114.936,35.217 119.609,33.194 L119.609,41.557 L119.608,41.557 Z M124.338,41.2 L124.348,30.266 C124.348,23.576 119.54,21.204 115.423,21.204 C110.963,21.204 107.34,24.204 106.293,28.804 L107.55,29.151 C108.597,25.597 111.312,23.857 114.102,23.857 C117.585,23.857 119.608,26.365 119.608,29.851 L119.608,31.658 C115.568,34.033 105.945,33.752 105.945,40.791 C105.945,44.416 109.151,47.341 112.985,47.341 C115.568,47.341 117.459,46.323 119.901,43.675 L119.915,43.665 L119.915,46.635 L128.575,46.635 L128.575,45.435 C125.047,45.435 124.338,44.445 124.338,41.201 L124.338,41.2 Z M157.55,73.985 C156.83,75.535 154.864,76.311 153.778,76.311 C152.28,76.311 150.988,74.814 150.988,72.951 C150.988,69.231 154.088,69.286 157.551,67.785 L157.551,73.985 L157.55,73.985 Z M161.056,73.717 L161.066,65.612 C161.066,60.654 157.499,58.895 154.448,58.895 C151.143,58.895 148.456,61.118 147.68,64.53 L148.614,64.788 C149.387,62.152 151.401,60.86 153.469,60.86 C156.052,60.86 157.549,62.722 157.549,65.306 L157.549,66.646 C154.554,68.406 147.421,68.199 147.421,73.418 C147.421,76.105 149.799,78.273 152.641,78.273 C154.554,78.273 155.958,77.516 157.769,75.553 L157.779,75.547 L157.779,77.747 L164.194,77.747 L164.194,76.855 C161.58,76.855 161.054,76.125 161.054,73.717 L161.056,73.717 Z" id="Shape" fill="#FFFFFF"></path>
        </g>
    </g>
</svg>